<svg width="200" height="120" viewBox="0 0 200 120" xmlns="http://www.w3.org/2000/svg">
  <!-- Background -->
  <rect width="200" height="120" fill="#f97316" rx="8"/>
  
  <!-- Flame Emblem -->
  <g transform="translate(100, 25)">
    <!-- Outer flame -->
    <path d="M -15 -10 C -15 -5, -12 0, -8 5 C -5 8, -2 10, 0 12 C 2 10, 5 8, 8 5 C 12 0, 15 -5, 15 -10 C 15 -15, 10 -18, 5 -20 C 0 -22, -5 -20, -10 -18 C -15 -16, -18 -12, -18 -8 C -18 -4, -16 0, -15 -5" fill="#dc2626" opacity="0.9"/>
    <!-- Inner flame -->
    <path d="M -8 -8 C -8 -4, -6 0, -3 3 C -1 5, 1 6, 0 8 C -1 6, -3 5, -6 3 C -9 0, -11 -4, -11 -8 C -11 -11, -8 -13, -5 -15 C -2 -16, 2 -16, 5 -15 C 8 -13, 10 -11, 10 -8 C 10 -5, 8 -2, 6 0 C 4 2, 2 3, 0 4 C -2 3, -4 2, -6 0 C -8 -2, -10 -5, -10 -8" fill="#fbbf24" opacity="0.8"/>
    <!-- Lasso -->
    <ellipse cx="0" cy="-5" rx="12" ry="8" fill="none" stroke="#fbbf24" stroke-width="2" opacity="0.7"/>
    <path d="M -8 -5 C -6 -3, -4 -2, 0 -2 C 4 -2, 6 -3, 8 -5" fill="none" stroke="#fbbf24" stroke-width="1.5" opacity="0.8"/>
  </g>
  
  <!-- Main Text -->
  <text x="100" y="65" font-family="Arial Black, sans-serif" font-size="24" font-weight="bold" text-anchor="middle" fill="#fbbf24">
    LAÇO DE OURO
  </text>
  
  <!-- Divider Line -->
  <line x1="30" y1="75" x2="170" y2="75" stroke="#fbbf24" stroke-width="1"/>
  
  <!-- Subtitle -->
  <text x="100" y="90" font-family="Arial, sans-serif" font-size="10" font-weight="bold" text-anchor="middle" fill="#fbbf24" letter-spacing="1">
    RESTAURANTE E CHURRASCARIA
  </text>
  
  <!-- 3D Effect for main text -->
  <text x="101" y="66" font-family="Arial Black, sans-serif" font-size="24" font-weight="bold" text-anchor="middle" fill="#dc2626" opacity="0.3">
    LAÇO DE OURO
  </text>
</svg>
